# xmcd
#
# Track frame offsets:
#	150
#	23208
#	40432
#	58409
#	75512
#
# Disc length: 1300
#
# Revision: 1
# Processed by: cddbd v1.5.1PL0 Copyright (c) Steve Scherf et al.
# Submitted via: dBpowerAMP V4.0
# Normalized: r0:TRMNUM
#
DISCID=3c051205
DTITLE=Deadwater Drowning - Self Titled
DYEAR=1900
DGENRE=
TTITLE0=Sleep Walking With A Knife
TTITLE1=Getting Sentimental On That Ass
TTITLE2=Bliss From a Dead Embace
TTITLE3=My Fist, Your Face
TTITLE4=The Best Sex I Ever Had Started With A 900 Number and A Credit Card Verification
EXTD=
EXTT0=
EXTT1=
EXTT2=
EXTT3=
EXTT4=
PLAYORDER=
